<svg width="165" height="165" viewBox="0 0 165 165" fill="none" xmlns="http://www.w3.org/2000/svg">
<path d="M44.6998 122.172C38.3672 120.937 32.3499 117.994 27.3765 113.383C12.2738 99.3801 12.2228 74.8772 27.2628 58.7299C42.3028 42.5826 66.7995 40.84 81.9022 54.843C86.8756 59.4543 90.2575 65.2265 91.9554 71.4373C79.0625 68.9381 64.7266 73.2832 54.6393 84.1131C44.5521 94.943 41.258 109.526 44.6998 122.172Z" stroke="white" stroke-opacity="0.1" stroke-miterlimit="10"/>
<path d="M120.225 117.688C118.564 124.148 115.213 130.406 110.26 135.723C95.2203 151.87 70.6688 153.562 55.4987 139.496C40.3286 125.431 40.2228 100.877 55.2628 84.7299C60.2156 79.4125 66.2248 75.6202 72.5608 73.4944C69.1938 86.646 72.587 100.793 82.7615 110.226C92.9819 119.703 107.325 122.001 120.225 117.688Z" stroke="white" stroke-opacity="0.1" stroke-miterlimit="10"/>
<path d="M119.891 42.3625C126.223 43.5974 132.241 46.5402 137.214 51.1514C152.317 65.1545 152.368 89.6574 137.328 105.805C122.288 121.952 97.7909 123.695 82.6882 109.692C77.7149 105.08 74.3329 99.3081 72.635 93.0973C85.5279 95.5965 99.8638 91.2514 109.951 80.4215C119.993 69.5493 123.332 55.0086 119.891 42.3625Z" stroke="white" stroke-opacity="0.1" stroke-miterlimit="10"/>
<path d="M45.6665 47.3995C47.3277 40.9394 50.6787 34.6824 55.6314 29.365C70.6714 13.2176 95.2229 11.5258 110.393 25.5914C125.563 39.6569 125.669 64.2106 110.629 80.3579C105.676 85.6753 99.6669 89.4677 93.3309 91.5935C96.6979 78.4418 93.3047 64.2952 83.1301 54.8615C72.9098 45.3853 58.5664 43.0867 45.6665 47.3995Z" stroke="white" stroke-opacity="0.1" stroke-miterlimit="10"/>
</svg>
